<svg width="20" height="19" viewBox="0 0 20 19" fill="none" xmlns="http://www.w3.org/2000/svg">
<path d="M1.66663 9.00004C1.66663 5.85734 1.66663 4.286 2.64293 3.30968C3.61925 2.33337 5.19059 2.33337 8.33329 2.33337H11.6666C14.8093 2.33337 16.3807 2.33337 17.357 3.30968C18.3333 4.286 18.3333 5.85734 18.3333 9.00004V10.6667C18.3333 13.8094 18.3333 15.3808 17.357 16.357C16.3807 17.3334 14.8093 17.3334 11.6666 17.3334H8.33329C5.19059 17.3334 3.61925 17.3334 2.64293 16.357C1.66663 15.3808 1.66663 13.8094 1.66663 10.6667V9.00004Z" stroke="#959393" stroke-width="1.5"/>
<path opacity="0.5" d="M5.83337 2.33337V1.08337" stroke="#959393" stroke-width="1.5" stroke-linecap="round"/>
<path opacity="0.5" d="M14.1666 2.33337V1.08337" stroke="#959393" stroke-width="1.5" stroke-linecap="round"/>
<path d="M1.66663 6.5H18.3333" stroke="#959393" stroke-width="1.5" stroke-linecap="round"/>
</svg>
