<svg width="41" height="41" viewBox="0 0 41 41" fill="none" xmlns="http://www.w3.org/2000/svg">
<circle cx="20.5" cy="20.5" r="20.5" fill="#F5F5F5"/>
<path d="M10.9167 20.5C10.9167 16.8859 10.9167 15.0789 12.0395 13.9561C13.1623 12.8334 14.9693 12.8334 18.5834 12.8334H22.4167C26.0308 12.8334 27.8379 12.8334 28.9606 13.9561C30.0834 15.0789 30.0834 16.8859 30.0834 20.5V22.4167C30.0834 26.0308 30.0834 27.8379 28.9606 28.9606C27.8379 30.0834 26.0308 30.0834 22.4167 30.0834H18.5834C14.9693 30.0834 13.1623 30.0834 12.0395 28.9606C10.9167 27.8379 10.9167 26.0308 10.9167 22.4167V20.5Z" stroke="#959393" stroke-width="1.5"/>
<path opacity="0.5" d="M15.7083 12.8334V11.3959" stroke="#959393" stroke-width="1.5" stroke-linecap="round"/>
<path opacity="0.5" d="M25.2917 12.8334V11.3959" stroke="#959393" stroke-width="1.5" stroke-linecap="round"/>
<path d="M10.9167 17.625H30.0834" stroke="#959393" stroke-width="1.5" stroke-linecap="round"/>
</svg>
