<svg width="41" height="41" viewBox="0 0 41 41" fill="none" xmlns="http://www.w3.org/2000/svg">
<circle cx="20.5" cy="20.5" r="20.5" fill="#F5F5F5"/>
<path d="M24.75 13.5547C24.75 13.5547 26.1773 12.8516 21 12.8516C19.1458 12.8516 17.3332 13.4014 15.7915 14.4315C14.2498 15.4617 13.0482 16.9258 12.3386 18.6389C11.6291 20.352 11.4434 22.237 11.8051 24.0555C12.1669 25.8741 13.0598 27.5446 14.3709 28.8557C15.682 30.1668 17.3525 31.0597 19.171 31.4214C20.9896 31.7832 22.8746 31.5975 24.5877 30.8879C26.3007 30.1784 27.7649 28.9767 28.795 27.435C29.8252 25.8933 30.375 24.0808 30.375 22.2266" stroke="#959393" stroke-width="1.5" stroke-miterlimit="10" stroke-linecap="round"/>
<path d="M21 8.39844L25.6875 13.0859L21 17.7734" stroke="#959393" stroke-width="1.5" stroke-linecap="round" stroke-linejoin="round"/>
</svg>
