<svg width="41" height="41" viewBox="0 0 41 41" fill="none" xmlns="http://www.w3.org/2000/svg">
<circle cx="20.5" cy="20.5" r="20.5" fill="#F5F5F5"/>
<path d="M20.5 18.25C22.9853 18.25 25 16.2353 25 13.75C25 11.2647 22.9853 9.25 20.5 9.25C18.0147 9.25 16 11.2647 16 13.75C16 16.2353 18.0147 18.25 20.5 18.25Z" stroke="#959393" stroke-width="1.5"/>
<path d="M23.875 30.192C22.852 30.4696 21.7078 30.625 20.5 30.625C16.1508 30.625 12.625 28.6102 12.625 26.125C12.625 23.6398 16.1508 21.625 20.5 21.625C24.8492 21.625 28.375 23.6398 28.375 26.125C28.375 26.5135 28.2888 26.8905 28.1269 27.25" stroke="#959393" stroke-width="1.5" stroke-linecap="round"/>
</svg>
