<svg width="303" height="130" viewBox="0 0 303 130" fill="none" xmlns="http://www.w3.org/2000/svg">
<g clip-path="url(#clip0_206_45)">
<path d="M91.9824 27.08C91.7018 25.8113 85.7491 16.528 72.0815 15.618C61.2806 14.8918 53.8463 23.5802 53.1888 29.3287C52.6715 33.8348 56.1608 41.3507 54.986 46.478C54.986 46.478 54.8808 47.1517 54.4337 48.0355C54.3986 48.1142 54.3548 48.1929 54.3109 48.2629C54.2846 48.3154 54.2496 48.3679 54.2233 48.4117C54.1531 48.5342 54.0742 48.6567 53.9953 48.7792C53.9077 48.9104 53.8025 49.0504 53.6885 49.1817C53.6885 49.1817 53.6885 49.1904 53.6797 49.1992C52.4699 50.7128 50.173 52.3053 45.807 52.3665C45.807 52.3665 50.0327 51.6928 51.9176 48.9017C50.5499 47.1255 47.5078 43.7831 42.8 41.8495C42.7474 41.832 42.7035 41.8145 42.6509 41.7882C42.3266 41.657 41.9934 41.5432 41.6515 41.4295C41.3885 41.342 41.1167 41.2545 40.8099 41.167C40.5819 41.097 40.3452 41.0357 40.1085 40.9745C39.8806 40.9132 39.6439 40.8607 39.4072 40.8082C37.3119 40.362 34.9536 40.1958 32.3673 40.537C29.2639 41.0357 25.95 42.4707 23.0043 45.708C23.0043 45.708 25.0294 41.0795 31.289 39.4783C29.0973 37.4396 23.9774 33.2486 19.1118 33.4673C19.1118 33.4673 26.3094 30.0462 28.2644 22.5302C30.2282 15.0143 37.496 11.3394 39.2055 11.8732C40.9151 12.4069 43.2822 15.478 45.7369 15.0493C48.1916 14.6206 48.1127 12.3369 48.1127 12.3369C48.1127 12.3369 51.602 11.4444 52.9959 10.8232C54.3898 10.202 54.083 7.84832 52.2595 5.24968C50.436 2.65103 49.2086 -0.892573 46.7363 0.201133C44.2553 1.28609 40.4329 2.11731 37.2768 2.2048C34.1207 2.2923 32.718 3.23726 29.6408 5.59967C26.5637 7.96207 18.1737 13.0981 12.5191 19.0654C6.8644 25.0414 3.90995 28.3662 1.28864 30.0199C-1.33267 31.6736 0.727558 33.2573 1.47275 35.5585C2.20917 37.8596 1.27111 43.9756 4.44473 49.0067C6.67153 52.5415 9.66104 55.7526 11.2479 57.3538C11.2479 56.1376 11.5898 55.4727 11.5898 55.4727C11.6073 57.5201 13.2905 60.3987 13.8166 61.2474C14.0971 61.6937 14.4127 62.1661 14.7634 62.6299C15.5699 58.9288 17.411 57.7388 17.411 57.7388C16.1047 59.5412 15.7979 61.9649 15.9382 64.3448C16.0083 65.1848 16.2538 67.3722 16.9376 69.8746C17.2269 70.8983 17.525 71.7382 17.7178 72.2632C18.0422 73.1207 18.428 73.9694 18.8751 74.7831C20.9967 71.0645 23.8722 70.0321 23.8722 70.0321C21.321 71.782 19.9709 74.2319 19.3397 76.778C19.103 77.898 18.7786 80.0067 18.9014 82.6228C19.0855 85.4139 19.7167 87.6889 19.9446 88.4413C20.5934 90.445 21.584 92.5099 23.092 94.5136C28.4836 101.671 36.33 121.261 37.4171 123.991C35.8653 119.94 21.663 78.948 73.6507 59.2875C73.6507 59.2875 77.2013 63.3386 79.6473 61.1599C81.7689 59.27 80.7081 57.8876 82.9086 57.2838C83.6801 57.0738 83.1628 55.6826 83.1628 55.6826C83.1628 55.6826 84.399 55.6039 84.2499 54.7552C84.1447 54.134 84.0746 51.8416 85.1003 51.8153C86.2488 51.7891 87.4323 51.6053 87.5814 50.9666C87.7392 50.2841 86.6608 45.8918 86.1261 43.8006C85.9507 43.1094 86.1261 42.3744 86.5995 41.832L88.5808 39.5745C88.835 39.2858 88.9841 38.9183 89.0104 38.5333L89.4487 31.9799C89.4487 31.9799 92.2454 28.34 91.9736 27.0713L91.9824 27.08Z" fill="white"/>
<g clip-path="url(#clip1_206_45)">
<path d="M70.5298 64.7474C70.5298 64.7474 26.0552 80.1905 40.6346 130.553C40.6346 130.553 40.1174 133.625 57.02 149.278C57.02 149.278 22.4433 93.8662 70.5298 64.7474Z" fill="url(#paint0_linear_206_45)"/>
</g>
</g>
<g clip-path="url(#clip2_206_45)">
<path d="M295 122H38.8699L39.4962 124H295V122Z" fill="url(#paint1_linear_206_45)"/>
</g>
<path d="M93.8735 74.87H81.7185V87.74H91.4685V94.11H81.7185V114H74.8285V68.5H93.8735V74.87ZM116.758 114H109.868V68.5H116.758V114ZM154.101 75H146.756V114H139.866V75H132.521V68.5H154.101V75ZM192.278 114H185.518L176.483 83.84H176.353V114H169.853V68.5H177.523L185.648 95.605H185.778V68.5H192.278V114ZM231.435 74.87H218.955V87.74H229.03V94.11H218.955V107.63H231.435V114H212.065V68.5H231.435V74.87ZM257.198 67.85C263.568 67.85 267.468 71.555 267.468 78.25V79.55L260.838 80.2V78.77C260.838 75.65 259.668 74.22 257.263 74.22C255.248 74.22 253.818 75.325 253.818 77.925V78.9C253.818 81.435 255.118 83.515 259.603 87.61C265.713 93.265 267.793 96.97 267.793 102.235V104.445C267.793 111.14 263.568 114.65 257.263 114.65C250.893 114.65 246.603 110.945 246.603 104.25V101.26L253.233 100.61V103.73C253.233 106.785 254.663 108.28 257.133 108.28C259.213 108.28 260.903 107.175 260.903 103.925V102.495C260.903 99.635 259.603 97.555 255.118 93.46C249.008 87.805 246.928 84.1 246.928 79.16V78.055C246.928 71.36 250.828 67.85 257.198 67.85ZM291.539 67.85C297.909 67.85 301.809 71.555 301.809 78.25V79.55L295.179 80.2V78.77C295.179 75.65 294.009 74.22 291.604 74.22C289.589 74.22 288.159 75.325 288.159 77.925V78.9C288.159 81.435 289.459 83.515 293.944 87.61C300.054 93.265 302.134 96.97 302.134 102.235V104.445C302.134 111.14 297.909 114.65 291.604 114.65C285.234 114.65 280.944 110.945 280.944 104.25V101.26L287.574 100.61V103.73C287.574 106.785 289.004 108.28 291.474 108.28C293.554 108.28 295.244 107.175 295.244 103.925V102.495C295.244 99.635 293.944 97.555 289.459 93.46C283.349 87.805 281.269 84.1 281.269 79.16V78.055C281.269 71.36 285.169 67.85 291.539 67.85Z" fill="white"/>
<defs>
<linearGradient id="paint0_linear_206_45" x1="56.4832" y1="67.072" x2="45.9311" y2="153.174" gradientUnits="userSpaceOnUse">
<stop stop-color="#FF4060"/>
<stop offset="1" stop-color="#A00C4B"/>
</linearGradient>
<linearGradient id="paint1_linear_206_45" x1="38" y1="123" x2="295" y2="123" gradientUnits="userSpaceOnUse">
<stop stop-color="#A00C4B"/>
<stop offset="1" stop-color="#FF4060"/>
</linearGradient>
<clipPath id="clip0_206_45">
<rect width="92" height="124" fill="white"/>
</clipPath>
<clipPath id="clip1_206_45">
<rect width="32.8321" height="84.5303" fill="white" transform="translate(37.6978 64.7474)"/>
</clipPath>
<clipPath id="clip2_206_45">
<rect width="257" height="2" fill="white" transform="translate(38 122)"/>
</clipPath>
</defs>
</svg>
