<svg width="28" height="29" viewBox="0 0 28 29" fill="none" xmlns="http://www.w3.org/2000/svg">
<g id="car-01">
<path id="Icon" d="M5.83301 15.6667H9.33301M2.33301 11.0001L4.66634 12.1667L6.14876 7.7195C6.45474 6.80154 6.60774 6.34256 6.89151 6.00323C7.1421 5.70357 7.46391 5.47162 7.82743 5.32865C8.23909 5.16675 8.7229 5.16675 9.69051 5.16675H18.3088C19.2765 5.16675 19.7603 5.16675 20.1719 5.32865C20.5354 5.47162 20.8572 5.70357 21.1078 6.00323C21.3916 6.34256 21.5446 6.80154 21.8506 7.7195L23.333 12.1667L25.6663 11.0001M18.6663 15.6667H22.1663M7.93301 12.1667H20.0663C22.0265 12.1667 23.0066 12.1667 23.7553 12.5482C24.4139 12.8838 24.9493 13.4192 25.2849 14.0778C25.6663 14.8265 25.6663 15.8066 25.6663 17.7667V20.9167C25.6663 21.4588 25.6663 21.7299 25.6215 21.9553C25.4374 22.8809 24.7138 23.6045 23.7882 23.7886C23.5628 23.8334 23.2918 23.8334 22.7497 23.8334H22.1663C20.8777 23.8334 19.833 22.7887 19.833 21.5001C19.833 21.1779 19.5718 20.9167 19.2497 20.9167H8.74967C8.42751 20.9167 8.16634 21.1779 8.16634 21.5001C8.16634 22.7887 7.12167 23.8334 5.83301 23.8334H5.24967C4.70758 23.8334 4.43653 23.8334 4.21113 23.7886C3.28552 23.6045 2.56196 22.8809 2.37784 21.9553C2.33301 21.7299 2.33301 21.4588 2.33301 20.9167V17.7667C2.33301 15.8066 2.33301 14.8265 2.71448 14.0778C3.05004 13.4192 3.58547 12.8838 4.24404 12.5482C4.99273 12.1667 5.97282 12.1667 7.93301 12.1667Z" stroke="#475467" stroke-width="2" stroke-linecap="round" stroke-linejoin="round"/>
</g>
</svg>
