<svg width="20" height="16" viewBox="0 0 20 16" fill="none" xmlns="http://www.w3.org/2000/svg">
<g id="Flag">
<g id="Group 6315">
<path id="Mask" d="M0 2.52494C0 1.60447 0.746192 0.858276 1.66667 0.858276H18.3333C19.2538 0.858276 20 1.60447 20 2.52494V13.4773C20 14.3978 19.2538 15.144 18.3333 15.144H1.66667C0.746192 15.144 0 14.3978 0 13.4773V2.52494Z" fill="white"/>
<mask id="mask0_78_1004" style="mask-type:luminance" maskUnits="userSpaceOnUse" x="0" y="0" width="20" height="16">
<path id="Mask_2" d="M0 2.52494C0 1.60447 0.746192 0.858276 1.66667 0.858276H18.3333C19.2538 0.858276 20 1.60447 20 2.52494V13.4773C20 14.3978 19.2538 15.144 18.3333 15.144H1.66667C0.746192 15.144 0 14.3978 0 13.4773V2.52494Z" fill="white"/>
</mask>
<g mask="url(#mask0_78_1004)">
<path id="Mask Copy" d="M0 0.858276H20V15.144H0V0.858276Z" fill="#0A17A7"/>
<path id="Rectangle 36" fill-rule="evenodd" clip-rule="evenodd" d="M3.33333 3.71542L0 0.858276H0.47619L3.80952 3.23923H4.7619L8.57143 0.858276V1.19152C8.57143 1.28123 8.5281 1.36541 8.45511 1.41755L5.2381 3.71542V4.6678L8.2482 7.24789C8.35921 7.34304 8.29192 7.52494 8.14571 7.52494C8.11288 7.52494 8.08088 7.51469 8.05417 7.49561L4.7619 5.14399H3.80952L0 7.52494V7.04875L3.33333 4.6678V3.71542Z" fill="#FF2E3B"/>
<path id="Rectangle 36 (Stroke)" fill-rule="evenodd" clip-rule="evenodd" d="M3.33319 3.71546V4.66784L-0.00014329 7.04879V7.52498L3.80938 5.14403H4.76176L8.05403 7.49565C8.08074 7.51473 8.11274 7.52498 8.14556 7.52498C8.29177 7.52498 8.35906 7.34308 8.24805 7.24793L5.23795 4.66784V3.71546L8.45496 1.41759C8.52796 1.36545 8.57129 1.28127 8.57129 1.19156V0.858317L4.76176 3.23927H3.80938L0.476047 0.858317H-0.00014329L3.33319 3.71546ZM3.98742 2.68371L0.654083 0.302761H-1.50195L2.77763 3.97098V4.38194L-0.555699 6.76289V8.52734L3.96871 5.69959H4.58373L7.73112 7.94772C7.85205 8.0341 7.99695 8.08054 8.14556 8.08054C8.80755 8.08054 9.11223 7.25694 8.6096 6.82612L5.79351 4.41232V4.00136L8.77787 1.86967C8.99687 1.71324 9.12684 1.46068 9.12684 1.19156V-0.144043L4.60243 2.68371H3.98742Z" fill="white"/>
<path id="Rectangle 2" fill-rule="evenodd" clip-rule="evenodd" d="M0 3.23923V5.14399H3.33333V7.44558C3.33333 7.7524 3.58206 8.00113 3.88889 8.00113H4.68254C4.98936 8.00113 5.2381 7.7524 5.2381 7.44558V5.14399H8.49206C8.79889 5.14399 9.04762 4.89526 9.04762 4.58843V3.79478C9.04762 3.48796 8.79889 3.23923 8.49206 3.23923H5.2381V0.858276H3.33333V3.23923H0Z" fill="url(#paint0_linear_78_1004)"/>
<path id="Rectangle 36_2" fill-rule="evenodd" clip-rule="evenodd" d="M0 3.71542H3.80952V3.23923V0.858276H4.7619V3.23923V3.71542H8.57143V4.6678H4.7619V5.14399V7.52494H3.80952V5.14399V4.6678H0V3.71542Z" fill="url(#paint1_linear_78_1004)"/>
<path id="Star 2" fill-rule="evenodd" clip-rule="evenodd" d="M4.2859 12.5251L3.44621 12.9665L3.60657 12.0315L2.92725 11.3693L3.86605 11.2329L4.2859 10.3822L4.70574 11.2329L5.64455 11.3693L4.96522 12.0315L5.12559 12.9665L4.2859 12.5251Z" fill="white"/>
<path id="Star 2_2" fill-rule="evenodd" clip-rule="evenodd" d="M14.2857 13.2393L13.6123 13.4366L13.8095 12.7632L13.6123 12.0897L14.2857 12.287L14.9592 12.0897L14.7619 12.7632L14.9592 13.4366L14.2857 13.2393Z" fill="white"/>
<path id="Star 2_3" fill-rule="evenodd" clip-rule="evenodd" d="M14.2857 4.1915L13.6123 4.38874L13.8095 3.71531L13.6123 3.04187L14.2857 3.23911L14.9592 3.04187L14.7619 3.71531L14.9592 4.38874L14.2857 4.1915Z" fill="white"/>
<path id="Star 2_4" fill-rule="evenodd" clip-rule="evenodd" d="M17.1427 7.04867L16.4692 7.24592L16.6665 6.57248L16.4692 5.89905L17.1427 6.09629L17.8161 5.89905L17.6189 6.57248L17.8161 7.24592L17.1427 7.04867Z" fill="white"/>
<path id="Star 2_5" fill-rule="evenodd" clip-rule="evenodd" d="M11.4288 8.00119L10.7554 8.19843L10.9526 7.525L10.7554 6.85156L11.4288 7.04881L12.1022 6.85156L11.905 7.525L12.1022 8.19843L11.4288 8.00119Z" fill="white"/>
<path id="Star 2_6" fill-rule="evenodd" clip-rule="evenodd" d="M15.7142 9.19151L15.3774 9.29013L15.4761 8.95342L15.3774 8.6167L15.7142 8.71532L16.0509 8.6167L15.9523 8.95342L16.0509 9.29013L15.7142 9.19151Z" fill="white"/>
</g>
</g>
</g>
<defs>
<linearGradient id="paint0_linear_78_1004" x1="0" y1="0.858276" x2="0" y2="8.00113" gradientUnits="userSpaceOnUse">
<stop stop-color="white"/>
<stop offset="1" stop-color="#F0F0F0"/>
</linearGradient>
<linearGradient id="paint1_linear_78_1004" x1="0" y1="0.858276" x2="0" y2="7.52494" gradientUnits="userSpaceOnUse">
<stop stop-color="#FF2E3B"/>
<stop offset="1" stop-color="#FC0D1B"/>
</linearGradient>
</defs>
</svg>
