<svg xmlns="http://www.w3.org/2000/svg" width="25" height="24" viewBox="0 0 25 24" fill="none">
  <path d="M16.5 6V5.2C16.5 4.0799 16.5 3.51984 16.282 3.09202C16.0903 2.71569 15.7843 2.40973 15.408 2.21799C14.9802 2 14.4201 2 13.3 2H11.7C10.5799 2 10.0198 2 9.59202 2.21799C9.21569 2.40973 8.90973 2.71569 8.71799 3.09202C8.5 3.51984 8.5 4.0799 8.5 5.2V6M10.5 11.5V16.5M14.5 11.5V16.5M3.5 6H21.5M19.5 6V17.2C19.5 18.8802 19.5 19.7202 19.173 20.362C18.8854 20.9265 18.4265 21.3854 17.862 21.673C17.2202 22 16.3802 22 14.7 22H10.3C8.61984 22 7.77976 22 7.13803 21.673C6.57354 21.3854 6.1146 20.9265 5.82698 20.362C5.5 19.7202 5.5 18.8802 5.5 17.2V6" stroke="#F04437" stroke-width="2" stroke-linecap="round" stroke-linejoin="round"/>
</svg>
