<svg width="66" height="11" viewBox="0 0 66 11" fill="none" xmlns="http://www.w3.org/2000/svg">
<g filter="url(#filter0_i_308_19709)">
<path d="M5.07741 2.81889C5.04901 2.53243 4.92708 2.3099 4.71165 2.15128C4.49621 1.99266 4.20384 1.91335 3.83452 1.91335C3.58357 1.91335 3.37169 1.94886 3.19886 2.01989C3.02604 2.08854 2.89347 2.18442 2.80114 2.30753C2.71117 2.43063 2.66619 2.57031 2.66619 2.72656C2.66146 2.85677 2.68868 2.97041 2.74787 3.06747C2.80942 3.16454 2.89347 3.24858 3 3.3196C3.10653 3.38826 3.22964 3.44863 3.36932 3.50071C3.509 3.55043 3.65814 3.59304 3.81676 3.62855L4.47017 3.7848C4.78741 3.85582 5.0786 3.95052 5.34375 4.06889C5.6089 4.18726 5.83854 4.33286 6.03267 4.50568C6.2268 4.6785 6.37713 4.8821 6.48366 5.11648C6.59257 5.35085 6.6482 5.61955 6.65057 5.92259C6.6482 6.36766 6.53456 6.75355 6.30966 7.08026C6.08712 7.40459 5.76515 7.65672 5.34375 7.83665C4.92472 8.0142 4.41927 8.10298 3.82741 8.10298C3.24029 8.10298 2.72893 8.01302 2.29332 7.8331C1.86009 7.65317 1.52154 7.38684 1.2777 7.03409C1.03622 6.67898 0.909564 6.23982 0.897727 5.71662H2.38565C2.40223 5.96046 2.47206 6.16406 2.59517 6.32741C2.72064 6.4884 2.88755 6.61032 3.09588 6.69318C3.30658 6.77367 3.54451 6.81392 3.80966 6.81392C4.07008 6.81392 4.29616 6.77604 4.48793 6.70028C4.68205 6.62453 4.83239 6.51918 4.93892 6.38423C5.04545 6.24929 5.09872 6.09422 5.09872 5.91903C5.09872 5.75568 5.05019 5.61837 4.95312 5.5071C4.85843 5.39583 4.71875 5.30114 4.53409 5.22301C4.3518 5.14489 4.12808 5.07386 3.86293 5.00994L3.07102 4.81108C2.45786 4.66193 1.97372 4.42874 1.61861 4.11151C1.26349 3.79427 1.08712 3.36695 1.08949 2.82955C1.08712 2.3892 1.20431 2.0045 1.44105 1.67543C1.68016 1.34635 2.00805 1.08949 2.42472 0.904829C2.84138 0.72017 3.31487 0.627841 3.84517 0.627841C4.38494 0.627841 4.85606 0.72017 5.25852 0.904829C5.66335 1.08949 5.97822 1.34635 6.20312 1.67543C6.42803 2.0045 6.54403 2.38565 6.55114 2.81889H5.07741ZM7.65643 10.0455V2.54545H9.1479V3.46165H9.21538C9.28166 3.31487 9.37755 3.16572 9.50302 3.0142C9.63086 2.86032 9.79658 2.73248 10.0002 2.63068C10.2061 2.52652 10.4618 2.47443 10.7672 2.47443C11.165 2.47443 11.5319 2.5786 11.8681 2.78693C12.2042 2.9929 12.473 3.30421 12.6742 3.72088C12.8754 4.13518 12.976 4.65483 12.976 5.27983C12.976 5.88826 12.8778 6.40199 12.6813 6.82102C12.4872 7.23769 12.222 7.55374 11.8858 7.76918C11.552 7.98224 11.178 8.08878 10.7637 8.08878C10.4701 8.08878 10.2203 8.04025 10.0144 7.94318C9.81078 7.84612 9.64388 7.7242 9.51367 7.57741C9.38346 7.42827 9.28403 7.27794 9.21538 7.12642H9.16921V10.0455H7.65643ZM9.13725 5.27273C9.13725 5.59706 9.18223 5.87997 9.27219 6.12145C9.36216 6.36293 9.49237 6.55114 9.66282 6.68608C9.83327 6.81866 10.0404 6.88494 10.2843 6.88494C10.5305 6.88494 10.7388 6.81747 10.9093 6.68253C11.0797 6.54522 11.2087 6.35582 11.2963 6.11435C11.3863 5.8705 11.4313 5.58996 11.4313 5.27273C11.4313 4.95786 11.3875 4.68087 11.2999 4.44176C11.2123 4.20265 11.0833 4.01562 10.9128 3.88068C10.7424 3.74574 10.5328 3.67827 10.2843 3.67827C10.0381 3.67827 9.82972 3.74337 9.65927 3.87358C9.49118 4.00379 9.36216 4.18845 9.27219 4.42756C9.18223 4.66667 9.13725 4.94839 9.13725 5.27273ZM13.9846 8V2.54545H15.4512V3.49716H15.508C15.6074 3.15862 15.7743 2.90294 16.0087 2.73011C16.2431 2.55492 16.513 2.46733 16.8184 2.46733C16.8941 2.46733 16.9758 2.47206 17.0634 2.48153C17.151 2.491 17.2279 2.50402 17.2942 2.5206V3.86293C17.2232 3.84162 17.1249 3.82268 16.9995 3.80611C16.874 3.78954 16.7592 3.78125 16.655 3.78125C16.4325 3.78125 16.2336 3.82978 16.0584 3.92685C15.8856 4.02154 15.7483 4.15412 15.6465 4.32457C15.5471 4.49503 15.4973 4.69152 15.4973 4.91406V8H13.9846ZM18.0763 8V2.54545H19.5891V8H18.0763ZM18.8363 1.84233C18.6114 1.84233 18.4184 1.76776 18.2575 1.61861C18.0988 1.46709 18.0195 1.28598 18.0195 1.07528C18.0195 0.86695 18.0988 0.68821 18.2575 0.539062C18.4184 0.387547 18.6114 0.311789 18.8363 0.311789C19.0612 0.311789 19.253 0.387547 19.4116 0.539062C19.5726 0.68821 19.6531 0.86695 19.6531 1.07528C19.6531 1.28598 19.5726 1.46709 19.4116 1.61861C19.253 1.76776 19.0612 1.84233 18.8363 1.84233ZM22.3137 4.84659V8H20.801V2.54545H22.2427V3.50781H22.3066C22.4274 3.19058 22.6298 2.93963 22.9139 2.75497C23.198 2.56795 23.5424 2.47443 23.9473 2.47443C24.3261 2.47443 24.6563 2.55729 24.938 2.72301C25.2198 2.88873 25.4387 3.12547 25.595 3.43324C25.7512 3.73864 25.8294 4.10322 25.8294 4.52699V8H24.3166V4.79688C24.319 4.46307 24.2337 4.20265 24.0609 4.01562C23.8881 3.82623 23.6502 3.73153 23.3471 3.73153C23.1435 3.73153 22.9636 3.77533 22.8074 3.86293C22.6535 3.95052 22.5327 4.07836 22.4451 4.24645C22.3599 4.41217 22.3161 4.61222 22.3137 4.84659ZM29.479 10.1591C28.989 10.1591 28.5688 10.0916 28.2184 9.95668C27.8704 9.8241 27.5934 9.64299 27.3874 9.41335C27.1815 9.18371 27.0477 8.92566 26.9862 8.6392L28.3853 8.45099C28.4279 8.5599 28.4954 8.6617 28.5877 8.75639C28.68 8.85109 28.802 8.92685 28.9535 8.98366C29.1074 9.04285 29.2944 9.07244 29.5146 9.07244C29.8436 9.07244 30.1147 8.99195 30.3278 8.83097C30.5432 8.67235 30.6509 8.40601 30.6509 8.03196V7.03409H30.587C30.5207 7.18561 30.4213 7.32884 30.2887 7.46378C30.1561 7.59872 29.9857 7.70881 29.7773 7.79403C29.569 7.87926 29.3204 7.92188 29.0316 7.92188C28.622 7.92188 28.2492 7.82718 27.913 7.63778C27.5792 7.44602 27.3129 7.15365 27.114 6.76065C26.9175 6.36529 26.8192 5.86577 26.8192 5.26207C26.8192 4.64418 26.9199 4.12808 27.1211 3.71378C27.3223 3.29948 27.5898 2.98935 27.9237 2.78338C28.2598 2.57741 28.628 2.47443 29.0281 2.47443C29.3335 2.47443 29.5891 2.52652 29.7951 2.63068C30.0011 2.73248 30.1668 2.86032 30.2923 3.0142C30.4201 3.16572 30.5183 3.31487 30.587 3.46165H30.6438V2.54545H32.146V8.05327C32.146 8.51728 32.0323 8.90554 31.805 9.21804C31.5778 9.53054 31.2629 9.76491 30.8604 9.92116C30.4603 10.0798 29.9999 10.1591 29.479 10.1591ZM29.511 6.78551C29.7549 6.78551 29.9608 6.72514 30.1289 6.6044C30.2994 6.4813 30.4296 6.30611 30.5195 6.07884C30.6119 5.8492 30.658 5.57457 30.658 5.25497C30.658 4.93537 30.613 4.65838 30.5231 4.42401C30.4331 4.18726 30.3029 4.00379 30.1325 3.87358C29.962 3.74337 29.7549 3.67827 29.511 3.67827C29.2624 3.67827 29.0529 3.74574 28.8825 3.88068C28.712 4.01326 28.583 4.19792 28.4954 4.43466C28.4078 4.6714 28.364 4.94484 28.364 5.25497C28.364 5.56984 28.4078 5.84209 28.4954 6.07173C28.5853 6.29901 28.7144 6.47538 28.8825 6.60085C29.0529 6.72396 29.2624 6.78551 29.511 6.78551ZM38.2708 8H35.6926V0.727273H38.2921C39.0236 0.727273 39.6533 0.872869 40.1813 1.16406C40.7092 1.45289 41.1152 1.86837 41.3993 2.41051C41.6858 2.95265 41.829 3.60133 41.829 4.35653C41.829 5.11411 41.6858 5.76515 41.3993 6.30966C41.1152 6.85417 40.7069 7.27202 40.1742 7.56321C39.6439 7.8544 39.0094 8 38.2708 8ZM37.2303 6.68253H38.2069C38.6614 6.68253 39.0437 6.60204 39.3539 6.44105C39.6664 6.2777 39.9007 6.02557 40.057 5.68466C40.2156 5.34138 40.2949 4.89867 40.2949 4.35653C40.2949 3.81913 40.2156 3.37997 40.057 3.03906C39.9007 2.69815 39.6676 2.44721 39.3574 2.28622C39.0473 2.12524 38.665 2.04474 38.2104 2.04474H37.2303V6.68253ZM42.9396 8V2.54545H44.4524V8H42.9396ZM43.6996 1.84233C43.4747 1.84233 43.2817 1.76776 43.1207 1.61861C42.9621 1.46709 42.8828 1.28598 42.8828 1.07528C42.8828 0.86695 42.9621 0.68821 43.1207 0.539062C43.2817 0.387547 43.4747 0.311789 43.6996 0.311789C43.9245 0.311789 44.1162 0.387547 44.2749 0.539062C44.4358 0.68821 44.5163 0.86695 44.5163 1.07528C44.5163 1.28598 44.4358 1.46709 44.2749 1.61861C44.1162 1.76776 43.9245 1.84233 43.6996 1.84233ZM48.1216 10.1591C47.6316 10.1591 47.2114 10.0916 46.861 9.95668C46.513 9.8241 46.236 9.64299 46.03 9.41335C45.824 9.18371 45.6903 8.92566 45.6287 8.6392L47.0279 8.45099C47.0705 8.5599 47.138 8.6617 47.2303 8.75639C47.3226 8.85109 47.4445 8.92685 47.5961 8.98366C47.7499 9.04285 47.937 9.07244 48.1571 9.07244C48.4862 9.07244 48.7573 8.99195 48.9703 8.83097C49.1858 8.67235 49.2935 8.40601 49.2935 8.03196V7.03409H49.2296C49.1633 7.18561 49.0639 7.32884 48.9313 7.46378C48.7987 7.59872 48.6283 7.70881 48.4199 7.79403C48.2116 7.87926 47.963 7.92188 47.6742 7.92188C47.2646 7.92188 46.8917 7.82718 46.5556 7.63778C46.2218 7.44602 45.9554 7.15365 45.7566 6.76065C45.5601 6.36529 45.4618 5.86577 45.4618 5.26207C45.4618 4.64418 45.5624 4.12808 45.7637 3.71378C45.9649 3.29948 46.2324 2.98935 46.5662 2.78338C46.9024 2.57741 47.2705 2.47443 47.6706 2.47443C47.976 2.47443 48.2317 2.52652 48.4377 2.63068C48.6436 2.73248 48.8094 2.86032 48.9348 3.0142C49.0627 3.16572 49.1609 3.31487 49.2296 3.46165H49.2864V2.54545H50.7885V8.05327C50.7885 8.51728 50.6749 8.90554 50.4476 9.21804C50.2203 9.53054 49.9055 9.76491 49.503 9.92116C49.1029 10.0798 48.6425 10.1591 48.1216 10.1591ZM48.1536 6.78551C48.3974 6.78551 48.6034 6.72514 48.7715 6.6044C48.9419 6.4813 49.0721 6.30611 49.1621 6.07884C49.2544 5.8492 49.3006 5.57457 49.3006 5.25497C49.3006 4.93537 49.2556 4.65838 49.1657 4.42401C49.0757 4.18726 48.9455 4.00379 48.775 3.87358C48.6046 3.74337 48.3974 3.67827 48.1536 3.67827C47.905 3.67827 47.6955 3.74574 47.525 3.88068C47.3546 4.01326 47.2256 4.19792 47.138 4.43466C47.0504 4.6714 47.0066 4.94484 47.0066 5.25497C47.0066 5.56984 47.0504 5.84209 47.138 6.07173C47.2279 6.29901 47.3569 6.47538 47.525 6.60085C47.6955 6.72396 47.905 6.78551 48.1536 6.78551ZM51.9924 8V2.54545H53.5051V8H51.9924ZM52.7523 1.84233C52.5274 1.84233 52.3345 1.76776 52.1735 1.61861C52.0149 1.46709 51.9355 1.28598 51.9355 1.07528C51.9355 0.86695 52.0149 0.68821 52.1735 0.539062C52.3345 0.387547 52.5274 0.311789 52.7523 0.311789C52.9772 0.311789 53.169 0.387547 53.3276 0.539062C53.4886 0.68821 53.5691 0.86695 53.5691 1.07528C53.5691 1.28598 53.4886 1.46709 53.3276 1.61861C53.169 1.76776 52.9772 1.84233 52.7523 1.84233ZM57.6183 2.54545V3.68182H54.3335V2.54545H57.6183ZM55.0792 1.23864H56.592V6.32386C56.592 6.46354 56.6133 6.57244 56.6559 6.65057C56.6985 6.72633 56.7577 6.77959 56.8335 6.81037C56.9116 6.84115 57.0015 6.85653 57.1033 6.85653C57.1744 6.85653 57.2454 6.85062 57.3164 6.83878C57.3874 6.82457 57.4419 6.81392 57.4798 6.80682L57.7177 7.93253C57.6419 7.9562 57.5354 7.98343 57.3981 8.0142C57.2608 8.04735 57.0939 8.06747 56.8974 8.07457C56.5328 8.08878 56.2132 8.04025 55.9386 7.92898C55.6663 7.81771 55.4544 7.64489 55.3029 7.41051C55.1514 7.17614 55.0768 6.88021 55.0792 6.52273V1.23864ZM60.1591 8.10298C59.8111 8.10298 59.5009 8.04261 59.2287 7.92188C58.9564 7.79877 58.741 7.61766 58.5824 7.37855C58.4261 7.13707 58.348 6.83641 58.348 6.47656C58.348 6.17353 58.4036 5.91903 58.5149 5.71307C58.6262 5.5071 58.7777 5.34138 58.9695 5.21591C59.1612 5.09044 59.379 4.99574 59.6229 4.93182C59.8691 4.8679 60.1271 4.82292 60.397 4.79688C60.7143 4.76373 60.9699 4.73295 61.1641 4.70455C61.3582 4.67377 61.4991 4.62879 61.5866 4.5696C61.6742 4.51042 61.718 4.42282 61.718 4.30682V4.28551C61.718 4.06061 61.647 3.8866 61.505 3.76349C61.3653 3.64039 61.1664 3.57884 60.9084 3.57884C60.6361 3.57884 60.4195 3.6392 60.2585 3.75994C60.0975 3.87831 59.991 4.02746 59.9389 4.20739L58.5398 4.09375C58.6108 3.76231 58.7505 3.47585 58.9588 3.23438C59.1671 2.99053 59.4358 2.8035 59.7649 2.6733C60.0964 2.54072 60.4799 2.47443 60.9155 2.47443C61.2185 2.47443 61.5085 2.50994 61.7855 2.58097C62.0649 2.65199 62.3123 2.76207 62.5277 2.91122C62.7455 3.06037 62.9171 3.25213 63.0426 3.48651C63.1681 3.71851 63.2308 3.99669 63.2308 4.32102V8H61.7962V7.24361H61.7536C61.666 7.41406 61.5488 7.56439 61.402 7.6946C61.2552 7.82244 61.0788 7.92306 60.8729 7.99645C60.6669 8.06747 60.429 8.10298 60.1591 8.10298ZM60.5923 7.05895C60.8149 7.05895 61.0114 7.01515 61.1818 6.92756C61.3523 6.83759 61.486 6.71686 61.5831 6.56534C61.6802 6.41383 61.7287 6.24219 61.7287 6.05043V5.47159C61.6813 5.50237 61.6162 5.53078 61.5334 5.55682C61.4529 5.58049 61.3617 5.60298 61.2599 5.62429C61.1581 5.64323 61.0563 5.66098 60.9545 5.67756C60.8527 5.69176 60.7604 5.70478 60.6776 5.71662C60.5 5.74266 60.3449 5.78409 60.2124 5.84091C60.0798 5.89773 59.9768 5.97467 59.9034 6.07173C59.83 6.16643 59.7933 6.2848 59.7933 6.42685C59.7933 6.63281 59.8679 6.79025 60.017 6.89915C60.1686 7.00568 60.3603 7.05895 60.5923 7.05895ZM65.9173 0.727273V8H64.4045V0.727273H65.9173Z" fill="#ECECEC"/>
</g>
<defs>
<filter id="filter0_i_308_19709" x="0.897705" y="0.311768" width="65.0195" height="10.3474" filterUnits="userSpaceOnUse" color-interpolation-filters="sRGB">
<feFlood flood-opacity="0" result="BackgroundImageFix"/>
<feBlend mode="normal" in="SourceGraphic" in2="BackgroundImageFix" result="shape"/>
<feColorMatrix in="SourceAlpha" type="matrix" values="0 0 0 0 0 0 0 0 0 0 0 0 0 0 0 0 0 0 127 0" result="hardAlpha"/>
<feOffset dy="0.5"/>
<feGaussianBlur stdDeviation="0.75"/>
<feComposite in2="hardAlpha" operator="arithmetic" k2="-1" k3="1"/>
<feColorMatrix type="matrix" values="0 0 0 0 0 0 0 0 0 0 0 0 0 0 0 0 0 0 0.25 0"/>
<feBlend mode="normal" in2="shape" result="effect1_innerShadow_308_19709"/>
</filter>
</defs>
</svg>
